<?xml version="1.0" encoding="iso-8859-1"?>
<!-- Generator: Adobe Illustrator 19.0.0, SVG Export Plug-In . SVG Version: 6.00 Build 0)  -->
<svg version="1.1" id="Layer_1" xmlns="http://www.w3.org/2000/svg" xmlns:xlink="http://www.w3.org/1999/xlink" x="0px" y="0px"
	 viewBox="0 0 512 512" style="enable-background:new 0 0 512 512;" xml:space="preserve">
<path style="fill:#5C5F66;" d="M48,416c-8.284,0-15-6.716-15-15V257c0-8.284,6.716-15,15-15s15,6.716,15,15v144
	C63,409.284,56.284,416,48,416z"/>
<path style="fill:#53565C;" d="M464,416c-8.284,0-15-6.716-15-15V257c0-8.284,6.716-15,15-15s15,6.716,15,15v144
	C479,409.284,472.284,416,464,416z"/>
<path style="fill:#C4CAD9;" d="M128,480h-16c-43.561,0-79-35.439-79-79s35.439-79,79-79h16c8.284,0,15,6.716,15,15v128
	C143,473.284,136.284,480,128,480z"/>
<path style="fill:#5C5F66;" d="M160,512c-25.916,0-47-21.084-47-47V337c0-25.916,21.084-47,47-47s47,21.084,47,47v128
	C207,490.916,185.916,512,160,512z"/>
<path style="fill:#B8BFCC;" d="M400,480h-16c-8.284,0-15-6.716-15-15V337c0-8.284,6.716-15,15-15h16c43.561,0,79,35.439,79,79
	S443.561,480,400,480z"/>
<path style="fill:#53565C;" d="M352,512c-25.916,0-47-21.084-47-47V337c0-25.916,21.084-47,47-47s47,21.084,47,47v128
	C399,490.916,377.916,512,352,512z"/>
<path style="fill:#B999FF;" d="M464,272c-17.645,0-32-14.355-32-32c0-97.047-78.953-176-176-176S80,142.953,80,240
	c0,17.645-14.355,32-32,32s-32-14.355-32-32C16,107.664,123.664,0,256,0c132.337,0,240,107.664,240,240
	C496,257.645,481.645,272,464,272z"/>
<path style="fill:#A680FF;" d="M432,240c0,17.645,14.355,32,32,32s32-14.355,32-32C496,107.664,388.337,0,256,0v64
	C353.047,64,432,142.953,432,240z"/>
<g>
</g>
<g>
</g>
<g>
</g>
<g>
</g>
<g>
</g>
<g>
</g>
<g>
</g>
<g>
</g>
<g>
</g>
<g>
</g>
<g>
</g>
<g>
</g>
<g>
</g>
<g>
</g>
<g>
</g>
</svg>
