<svg id="makeup_x5F_bag" enable-background="new 0 0 300 300" height="512" viewBox="0 0 300 300" width="512" xmlns="http://www.w3.org/2000/svg"><circle cx="120" cy="130.926" fill="#e5efef" r="92"/><path d="m60 190.926v-28.25c0-26.372 21.378-47.75 47.75-47.75h92.5c26.372 0 47.75 21.378 47.75 47.75v28.25z" fill="#efefd2"/><path d="m248 194.926h-188c-2.209 0-4-1.791-4-4v-28.25c0-28.535 23.215-51.75 51.75-51.75h92.5c28.535 0 51.75 23.215 51.75 51.75v28.25c0 2.209-1.791 4-4 4zm-184-8h180v-24.25c0-24.123-19.627-43.75-43.75-43.75h-92.5c-24.123 0-43.75 19.627-43.75 43.75z" fill="#4c241d"/><circle cx="164.354" cy="102.726" fill="#ffce56" r="8.647"/><path d="m164.354 115.373c-6.973 0-12.646-5.674-12.646-12.646 0-6.975 5.674-12.648 12.646-12.648 6.975 0 12.648 5.674 12.648 12.648 0 6.972-5.674 12.646-12.648 12.646zm0-17.295c-2.562 0-4.646 2.086-4.646 4.648s2.084 4.646 4.646 4.646 4.648-2.084 4.648-4.646-2.086-4.648-4.648-4.648z" fill="#4c241d"/><circle cx="146.535" cy="102.726" fill="#ffce56" r="8.647"/><path d="m146.535 115.373c-6.975 0-12.648-5.674-12.648-12.646 0-6.975 5.674-12.648 12.648-12.648 6.973 0 12.646 5.674 12.646 12.648.001 6.972-5.673 12.646-12.646 12.646zm0-17.295c-2.562 0-4.648 2.086-4.648 4.648s2.086 4.646 4.648 4.646 4.646-2.084 4.646-4.646-2.083-4.648-4.646-4.648z" fill="#4c241d"/><path d="m242.192 179.742c-4.951-5.039-7.725-11.82-7.725-18.885 0-16.531-13.566-29.932-30.3-29.932h-100.355c-16.734 0-30.3 13.401-30.3 29.932 0 7.064-2.774 13.846-7.725 18.885l-17.589 17.902c-5.267 5.361-8.219 12.576-8.219 20.091 0 10.221 5.406 19.693 14.264 24.792 11.039 6.354 27.54 14.311 46.094 18.087 35.915 5.508 71.704 6.337 107.304 0 18.554-3.777 35.055-11.733 46.094-18.087 8.858-5.099 14.264-14.571 14.264-24.792 0-7.516-2.951-14.731-8.219-20.091z" fill="#bd53b5"/><g fill="#4c241d"><path d="m155.973 269.074c-18.002 0-36.66-1.502-56.24-4.506-19.475-3.959-36.553-12.283-47.484-18.574-10.035-5.777-16.27-16.605-16.27-28.258 0-8.617 3.326-16.748 9.365-22.895l17.59-17.902c4.242-4.318 6.578-10.031 6.578-16.082 0-18.711 15.387-33.932 34.301-33.932h100.355c18.912 0 34.299 15.221 34.299 33.932 0 6.053 2.336 11.764 6.58 16.082l17.588 17.902c6.039 6.146 9.365 14.277 9.365 22.895 0 11.652-6.234 22.48-16.268 28.258-10.932 6.291-28.01 14.615-47.293 18.541-17.005 3.027-34.406 4.539-52.466 4.539zm-52.161-134.148c-14.502 0-26.301 11.633-26.301 25.932 0 8.162-3.15 15.863-8.871 21.688l-17.59 17.902c-4.561 4.643-7.072 10.781-7.072 17.289 0 8.801 4.697 16.971 12.262 21.324 10.418 5.996 26.664 13.924 44.896 17.635 38.145 5.846 72.822 5.852 105.803-.018 18.137-3.693 34.383-11.621 44.801-17.617 7.562-4.354 12.26-12.525 12.26-21.324 0-6.508-2.512-12.646-7.072-17.289l-17.588-17.902c-5.723-5.822-8.873-13.525-8.873-21.688 0-14.299-11.797-25.932-26.299-25.932z"/><path d="m224.574 259.416c-.816 0-1.641-.25-2.352-.768l-8.875-6.467c-23.619-17.217-38.684-43.785-41.332-72.895-.199-2.199 1.422-4.145 3.623-4.346 2.199-.17 4.146 1.424 4.346 3.623 2.438 26.816 16.316 51.293 38.074 67.152l8.875 6.467c1.785 1.301 2.178 3.803.877 5.588-.783 1.076-1.999 1.646-3.236 1.646z"/><path d="m83.426 259.416c-1.236 0-2.453-.57-3.236-1.645-1.301-1.785-.908-4.287.877-5.588l8.875-6.467c21.758-15.859 35.637-40.336 38.074-67.152.201-2.201 2.154-3.799 4.346-3.623 2.201.201 3.822 2.146 3.623 4.346-2.648 29.109-17.713 55.678-41.332 72.895l-8.875 6.467c-.712.517-1.536.767-2.352.767z"/><path d="m72.729 73.654c-1.023 0-2.047-.391-2.828-1.172l-5.658-5.658c-1.562-1.562-1.562-4.094 0-5.656s4.094-1.562 5.656 0l5.658 5.658c1.562 1.562 1.562 4.094 0 5.656-.782.782-1.805 1.172-2.828 1.172z"/><path d="m52.93 53.855c-1.023 0-2.047-.391-2.828-1.172l-5.658-5.658c-1.562-1.562-1.562-4.094 0-5.656s4.094-1.562 5.656 0l5.658 5.658c1.562 1.562 1.562 4.094 0 5.656-.781.782-1.805 1.172-2.828 1.172z"/><path d="m67.07 53.855c-1.023 0-2.047-.391-2.828-1.172-1.562-1.562-1.562-4.094 0-5.656l5.658-5.658c1.562-1.562 4.094-1.562 5.656 0s1.562 4.094 0 5.656l-5.658 5.658c-.781.782-1.804 1.172-2.828 1.172z"/><path d="m47.271 73.654c-1.023 0-2.047-.391-2.828-1.172-1.562-1.562-1.562-4.094 0-5.656l5.658-5.658c1.562-1.562 4.094-1.562 5.656 0s1.562 4.094 0 5.656l-5.657 5.658c-.782.782-1.805 1.172-2.829 1.172z"/><circle cx="132" cy="50.926" r="4.099"/><circle cx="256" cy="94.926" r="4.099"/><circle cx="44" cy="122.926" r="4.099"/><path d="m228 54.926c-6.617 0-12-5.383-12-12s5.383-12 12-12 12 5.383 12 12-5.383 12-12 12zm0-16c-2.205 0-4 1.795-4 4s1.795 4 4 4 4-1.795 4-4-1.795-4-4-4z"/></g></svg>